<?xml version="1.0" encoding="utf-8"?>
<!-- Generator: Adobe Illustrator 16.0.0, SVG Export Plug-In . SVG Version: 6.00 Build 0)  -->
<!DOCTYPE svg PUBLIC "-//W3C//DTD SVG 1.1//EN" "http://www.w3.org/Graphics/SVG/1.1/DTD/svg11.dtd">
<svg version="1.1" id="Layer_1" xmlns="http://www.w3.org/2000/svg" xmlns:xlink="http://www.w3.org/1999/xlink" x="0px" y="0px"
	 width="30.192px" height="31.25px" viewBox="0 0 30.192 31.25" enable-background="new 0 0 30.192 31.25" xml:space="preserve">
<path d="M2.963,17.528c1.113,0,1.78,0.769,1.78,1.633c0,1.1-0.571,1.517-2.044,2.103c-0.308,0.118-0.74,0.249-0.74,0.587v0.131
	h2.447c0.183,0,0.249,0.066,0.249,0.249v0.359c0,0.184-0.066,0.249-0.249,0.249H1.249C1.066,22.839,1,22.773,1,22.59v-0.549
	c0-0.997,0.725-1.333,1.443-1.62c0.673-0.263,1.333-0.49,1.333-1.216c0-0.446-0.337-0.82-0.85-0.82c-0.52,0-0.82,0.22-1.01,0.652
	c-0.081,0.183-0.146,0.22-0.323,0.161l-0.395-0.146c-0.176-0.066-0.228-0.147-0.162-0.316C1.336,18.004,1.908,17.528,2.963,17.528z"
	/>
<path d="M8.573,17.528c1.23,0,1.934,0.688,1.934,1.765v1.883c0,1.083-0.704,1.772-1.934,1.772s-1.941-0.689-1.941-1.772v-1.883
	C6.631,18.217,7.342,17.528,8.573,17.528z M8.573,18.385c-0.645,0-1.019,0.33-1.019,0.908v1.883c0,0.578,0.374,0.915,1.019,0.915
	s1.018-0.337,1.018-0.915v-1.883C9.591,18.714,9.217,18.385,8.573,18.385z"/>
<path d="M3.543,24.871v4.703c0,0.184-0.059,0.249-0.249,0.249H2.875c-0.19,0-0.249-0.065-0.249-0.249v-3.838l-1.026,0.572
	c-0.19,0.11-0.285,0.065-0.374-0.096l-0.183-0.33C0.957,25.721,1,25.641,1.162,25.546l1.428-0.82
	c0.132-0.081,0.198-0.103,0.352-0.103h0.352C3.484,24.623,3.543,24.688,3.543,24.871z"/>
<path d="M8.43,26.586c1.289,0,1.897,0.571,1.897,1.67c0,1.033-0.74,1.677-1.971,1.677c-1.296,0-1.978-0.732-1.978-1.912v-1.597
	c0-1.195,0.688-1.912,1.978-1.912c1.004,0,1.611,0.417,1.89,1.157c0.073,0.176,0.021,0.249-0.154,0.322l-0.389,0.139
	c-0.175,0.074-0.241,0.029-0.314-0.154c-0.168-0.396-0.491-0.608-1.033-0.608c-0.689,0-1.055,0.359-1.055,1.048v0.308
	C7.492,26.673,7.865,26.586,8.43,26.586z M8.356,29.076c0.681,0,1.055-0.286,1.055-0.82c0-0.535-0.293-0.813-1.047-0.813
	c-0.608,0-0.959,0.117-1.062,0.169v0.417C7.301,28.709,7.66,29.076,8.356,29.076z"/>
<path d="M13.254,1.541v11.469c0,0.446-0.143,0.607-0.607,0.607h-0.912c-0.464,0-0.607-0.161-0.607-0.607V7.561
	c0-1.019,0.125-2.18,0.429-3.556h-0.125c-0.447,1.34-0.894,2.233-1.465,3.27l-1.751,3.091c-0.196,0.321-0.339,0.429-0.696,0.429
	H6.948c-0.375,0-0.5-0.072-0.697-0.429L4.464,7.257C3.857,6.221,3.518,5.435,3.089,4.005H2.964C3.25,5.399,3.339,6.453,3.339,7.579
	v5.431c0,0.446-0.143,0.607-0.608,0.607H1.875c-0.465,0-0.625-0.161-0.625-0.607V1.541c0-0.447,0.161-0.607,0.625-0.607h0.786
	c0.5,0,0.661,0.089,0.857,0.464l3.716,6.646l3.716-6.628c0.215-0.393,0.34-0.482,0.822-0.482h0.875
	C13.111,0.933,13.254,1.094,13.254,1.541z"/>
<path d="M27.553,1.541v11.469c0,0.446-0.16,0.607-0.625,0.607h-1.018c-0.447,0-0.608-0.161-0.608-0.607v-4.77h-5.287v4.77
	c0,0.446-0.162,0.607-0.607,0.607h-1.019c-0.464,0-0.625-0.161-0.625-0.607V1.541c0-0.447,0.161-0.607,0.625-0.607h1.019
	c0.446,0,0.607,0.161,0.607,0.607v4.609h5.287V1.541c0-0.447,0.161-0.607,0.608-0.607h1.018C27.394,0.933,27.553,1.094,27.553,1.541
	z"/>
<path d="M28.089,17.568l-2.948,11.594c-0.107,0.429-0.339,0.5-0.75,0.5h-0.982c-0.429,0-0.661-0.09-0.75-0.482l-1.875-7.092
	c-0.144-0.572-0.268-1.34-0.286-2.019h-0.126c-0.018,0.679-0.143,1.393-0.304,2.001l-1.893,7.092c-0.108,0.429-0.34,0.5-0.75,0.5
	h-0.965c-0.429,0-0.661-0.072-0.768-0.482l-2.93-11.612c-0.107-0.411-0.054-0.59,0.393-0.59h1.25c0.5,0,0.714,0.09,0.804,0.536
	l1.464,6.664c0.126,0.625,0.25,2.072,0.286,2.394h0.108c0.018-0.375,0.178-1.697,0.357-2.394l1.804-6.61
	c0.125-0.447,0.358-0.536,0.804-0.536h0.964c0.465,0,0.697,0.089,0.805,0.536l1.768,6.61c0.197,0.768,0.358,2.054,0.376,2.394h0.106
	c0.018-0.286,0.179-1.679,0.321-2.376l1.43-6.681c0.089-0.446,0.303-0.536,0.804-0.536h1.09
	C28.124,16.979,28.196,17.157,28.089,17.568z"/>
</svg>
